<?xml version="1.0" encoding="UTF-8" standalone="no"?>
<svg
   xmlns:ns1="http://www.iki.fi/pav/software/textext/"
   xmlns:dc="http://purl.org/dc/elements/1.1/"
   xmlns:cc="http://creativecommons.org/ns#"
   xmlns:rdf="http://www.w3.org/1999/02/22-rdf-syntax-ns#"
   xmlns:svg="http://www.w3.org/2000/svg"
   xmlns="http://www.w3.org/2000/svg"
   xmlns:sodipodi="http://sodipodi.sourceforge.net/DTD/sodipodi-0.dtd"
   xmlns:inkscape="http://www.inkscape.org/namespaces/inkscape"
   sodipodi:docname="2-1-7.svg"
   inkscape:version="1.0 (4035a4fb49, 2020-05-01)"
   id="svg5999"
   version="1.1"
   viewBox="0 0 210 297"
   height="297mm"
   width="210mm">
  <defs
     id="defs5993">
    <inkscape:path-effect
       lpeversion="1"
       is_visible="true"
       id="path-effect8846"
       effect="spiro" />
    <inkscape:path-effect
       lpeversion="1"
       is_visible="true"
       id="path-effect8842"
       effect="spiro" />
    <inkscape:path-effect
       lpeversion="1"
       is_visible="true"
       id="path-effect8838"
       effect="spiro" />
    <inkscape:path-effect
       lpeversion="1"
       is_visible="true"
       id="path-effect8834"
       effect="spiro" />
    <inkscape:path-effect
       lpeversion="1"
       is_visible="true"
       id="path-effect8830"
       effect="spiro" />
    <inkscape:path-effect
       lpeversion="1"
       is_visible="true"
       id="path-effect8826"
       effect="spiro" />
    <marker
       inkscape:stockid="Arrow1Send"
       orient="auto"
       refY="0.0"
       refX="0.0"
       id="marker6720"
       style="overflow:visible;"
       inkscape:isstock="true">
      <path
         id="path6718"
         d="M 0.0,0.0 L 5.0,-5.0 L -12.5,0.0 L 5.0,5.0 L 0.0,0.0 z "
         style="fill-rule:evenodd;stroke:#ff0000;stroke-width:1pt;stroke-opacity:1;fill:#ff0000;fill-opacity:1"
         transform="scale(0.2) rotate(180) translate(6,0)" />
    </marker>
    <marker
       inkscape:collect="always"
       inkscape:isstock="true"
       style="overflow:visible;"
       id="Arrow1Send"
       refX="0.0"
       refY="0.0"
       orient="auto"
       inkscape:stockid="Arrow1Send">
      <path
         transform="scale(0.2) rotate(180) translate(6,0)"
         style="fill-rule:evenodd;stroke:#0000ff;stroke-width:1pt;stroke-opacity:1;fill:#0000ff;fill-opacity:1"
         d="M 0.0,0.0 L 5.0,-5.0 L -12.5,0.0 L 5.0,5.0 L 0.0,0.0 z "
         id="path5550" />
    </marker>
    <marker
       inkscape:isstock="true"
       style="overflow:visible"
       id="marker6720-5"
       refX="0"
       refY="0"
       orient="auto"
       inkscape:stockid="Arrow1Send">
      <path
         transform="matrix(-0.2,0,0,-0.2,-1.2,0)"
         style="fill:#000000;fill-opacity:1;fill-rule:evenodd;stroke:#000000;stroke-width:1pt;stroke-opacity:1"
         d="M 0,0 5,-5 -12.5,0 5,5 Z"
         id="path6718-7" />
    </marker>
    <marker
       inkscape:isstock="true"
       style="overflow:visible"
       id="marker6720-3"
       refX="0"
       refY="0"
       orient="auto"
       inkscape:stockid="Arrow1Send">
      <path
         transform="matrix(-0.2,0,0,-0.2,-1.2,0)"
         style="fill:#000000;fill-opacity:1;fill-rule:evenodd;stroke:#000000;stroke-width:1pt;stroke-opacity:1"
         d="M 0,0 5,-5 -12.5,0 5,5 Z"
         id="path6718-5" />
    </marker>
    <marker
       inkscape:isstock="true"
       style="overflow:visible"
       id="marker6720-57"
       refX="0"
       refY="0"
       orient="auto"
       inkscape:stockid="Arrow1Send">
      <path
         transform="matrix(-0.2,0,0,-0.2,-1.2,0)"
         style="fill:#ff0000;fill-opacity:1;fill-rule:evenodd;stroke:#ff0000;stroke-width:1pt;stroke-opacity:1"
         d="M 0,0 5,-5 -12.5,0 5,5 Z"
         id="path6718-1" />
    </marker>
    <marker
       inkscape:stockid="Arrow1Send"
       orient="auto"
       refY="0"
       refX="0"
       id="Arrow1Send-6"
       style="overflow:visible"
       inkscape:isstock="true"
       inkscape:collect="always">
      <path
         id="path5550-8"
         d="M 0,0 5,-5 -12.5,0 5,5 Z"
         style="fill:#0000ff;fill-opacity:1;fill-rule:evenodd;stroke:#0000ff;stroke-width:1pt;stroke-opacity:1"
         transform="matrix(-0.2,0,0,-0.2,-1.2,0)" />
    </marker>
    <marker
       inkscape:isstock="true"
       style="overflow:visible"
       id="marker6720-4"
       refX="0"
       refY="0"
       orient="auto"
       inkscape:stockid="Arrow1Send">
      <path
         transform="matrix(-0.2,0,0,-0.2,-1.2,0)"
         style="fill:#ff0000;fill-opacity:1;fill-rule:evenodd;stroke:#ff0000;stroke-width:1pt;stroke-opacity:1"
         d="M 0,0 5,-5 -12.5,0 5,5 Z"
         id="path6718-9" />
    </marker>
    <marker
       inkscape:stockid="Arrow1Send"
       orient="auto"
       refY="0"
       refX="0"
       id="Arrow1Send-62"
       style="overflow:visible"
       inkscape:isstock="true"
       inkscape:collect="always">
      <path
         id="path5550-9"
         d="M 0,0 5,-5 -12.5,0 5,5 Z"
         style="fill:#0000ff;fill-opacity:1;fill-rule:evenodd;stroke:#0000ff;stroke-width:1pt;stroke-opacity:1"
         transform="matrix(-0.2,0,0,-0.2,-1.2,0)" />
    </marker>
    <marker
       inkscape:isstock="true"
       style="overflow:visible"
       id="marker6720-0"
       refX="0"
       refY="0"
       orient="auto"
       inkscape:stockid="Arrow1Send">
      <path
         transform="matrix(-0.2,0,0,-0.2,-1.2,0)"
         style="fill:#ff0000;fill-opacity:1;fill-rule:evenodd;stroke:#ff0000;stroke-width:1pt;stroke-opacity:1"
         d="M 0,0 5,-5 -12.5,0 5,5 Z"
         id="path6718-6" />
    </marker>
    <marker
       inkscape:stockid="Arrow1Send"
       orient="auto"
       refY="0"
       refX="0"
       id="Arrow1Send-65"
       style="overflow:visible"
       inkscape:isstock="true"
       inkscape:collect="always">
      <path
         id="path5550-20"
         d="M 0,0 5,-5 -12.5,0 5,5 Z"
         style="fill:#0000ff;fill-opacity:1;fill-rule:evenodd;stroke:#0000ff;stroke-width:1pt;stroke-opacity:1"
         transform="matrix(-0.2,0,0,-0.2,-1.2,0)" />
    </marker>
    <marker
       inkscape:isstock="true"
       style="overflow:visible"
       id="marker6720-43"
       refX="0"
       refY="0"
       orient="auto"
       inkscape:stockid="Arrow1Send">
      <path
         transform="matrix(-0.2,0,0,-0.2,-1.2,0)"
         style="fill:#ff0000;fill-opacity:1;fill-rule:evenodd;stroke:#ff0000;stroke-width:1pt;stroke-opacity:1"
         d="M 0,0 5,-5 -12.5,0 5,5 Z"
         id="path6718-12" />
    </marker>
    <marker
       inkscape:stockid="Arrow1Send"
       orient="auto"
       refY="0"
       refX="0"
       id="Arrow1Send-2"
       style="overflow:visible"
       inkscape:isstock="true"
       inkscape:collect="always">
      <path
         id="path5550-92"
         d="M 0,0 5,-5 -12.5,0 5,5 Z"
         style="fill:#0000fe;fill-opacity:1;fill-rule:evenodd;stroke:#0000fe;stroke-width:1pt;stroke-opacity:1"
         transform="matrix(-0.2,0,0,-0.2,-1.2,0)" />
    </marker>
    <marker
       inkscape:isstock="true"
       style="overflow:visible"
       id="marker6720-1"
       refX="0"
       refY="0"
       orient="auto"
       inkscape:stockid="Arrow1Send">
      <path
         transform="matrix(-0.2,0,0,-0.2,-1.2,0)"
         style="fill:#ff0000;fill-opacity:1;fill-rule:evenodd;stroke:#ff0000;stroke-width:1pt;stroke-opacity:1"
         d="M 0,0 5,-5 -12.5,0 5,5 Z"
         id="path6718-0" />
    </marker>
    <marker
       inkscape:stockid="Arrow1Send"
       orient="auto"
       refY="0"
       refX="0"
       id="Arrow1Send-21"
       style="overflow:visible"
       inkscape:isstock="true"
       inkscape:collect="always">
      <path
         id="path5550-85"
         d="M 0,0 5,-5 -12.5,0 5,5 Z"
         style="fill:#0000ff;fill-opacity:1;fill-rule:evenodd;stroke:#0000ff;stroke-width:1pt;stroke-opacity:1"
         transform="matrix(-0.2,0,0,-0.2,-1.2,0)" />
    </marker>
    <marker
       inkscape:isstock="true"
       style="overflow:visible"
       id="marker6720-52"
       refX="0"
       refY="0"
       orient="auto"
       inkscape:stockid="Arrow1Send">
      <path
         transform="matrix(-0.2,0,0,-0.2,-1.2,0)"
         style="fill:#ff0000;fill-opacity:1;fill-rule:evenodd;stroke:#ff0000;stroke-width:1pt;stroke-opacity:1"
         d="M 0,0 5,-5 -12.5,0 5,5 Z"
         id="path6718-64" />
    </marker>
    <marker
       inkscape:stockid="Arrow1Send"
       orient="auto"
       refY="0"
       refX="0"
       id="Arrow1Send-5"
       style="overflow:visible"
       inkscape:isstock="true"
       inkscape:collect="always">
      <path
         id="path5550-0"
         d="M 0,0 5,-5 -12.5,0 5,5 Z"
         style="fill:#0000ff;fill-opacity:1;fill-rule:evenodd;stroke:#0000ff;stroke-width:1pt;stroke-opacity:1"
         transform="matrix(-0.2,0,0,-0.2,-1.2,0)" />
    </marker>
    <marker
       inkscape:stockid="Arrow1Send"
       orient="auto"
       refY="0"
       refX="0"
       id="marker6720-1-8"
       style="overflow:visible"
       inkscape:isstock="true">
      <path
         id="path6718-0-7"
         d="M 0,0 5,-5 -12.5,0 5,5 Z"
         style="fill:#ff0000;fill-opacity:1;fill-rule:evenodd;stroke:#ff0000;stroke-width:1pt;stroke-opacity:1"
         transform="matrix(-0.2,0,0,-0.2,-1.2,0)" />
    </marker>
    <marker
       inkscape:collect="always"
       inkscape:isstock="true"
       style="overflow:visible"
       id="Arrow1Send-21-5"
       refX="0"
       refY="0"
       orient="auto"
       inkscape:stockid="Arrow1Send">
      <path
         transform="matrix(-0.2,0,0,-0.2,-1.2,0)"
         style="fill:#0000ff;fill-opacity:1;fill-rule:evenodd;stroke:#0000ff;stroke-width:1pt;stroke-opacity:1"
         d="M 0,0 5,-5 -12.5,0 5,5 Z"
         id="path5550-85-0" />
    </marker>
    <marker
       inkscape:stockid="Arrow1Send"
       orient="auto"
       refY="0"
       refX="0"
       id="marker6720-1-5"
       style="overflow:visible"
       inkscape:isstock="true">
      <path
         id="path6718-0-2"
         d="M 0,0 5,-5 -12.5,0 5,5 Z"
         style="fill:#0000ff;fill-opacity:1;fill-rule:evenodd;stroke:#0000ff;stroke-width:1pt;stroke-opacity:1"
         transform="matrix(-0.2,0,0,-0.2,-1.2,0)" />
    </marker>
    <marker
       inkscape:collect="always"
       inkscape:isstock="true"
       style="overflow:visible"
       id="Arrow1Send-21-6"
       refX="0"
       refY="0"
       orient="auto"
       inkscape:stockid="Arrow1Send">
      <path
         transform="matrix(-0.2,0,0,-0.2,-1.2,0)"
         style="fill:#ff0000;fill-opacity:1;fill-rule:evenodd;stroke:#ff0000;stroke-width:1pt;stroke-opacity:1"
         d="M 0,0 5,-5 -12.5,0 5,5 Z"
         id="path5550-85-9" />
    </marker>
  </defs>
  <sodipodi:namedview
     inkscape:window-maximized="1"
     inkscape:window-y="-8"
     inkscape:window-x="1432"
     inkscape:window-height="1009"
     inkscape:window-width="1920"
     showgrid="false"
     inkscape:document-rotation="0"
     inkscape:current-layer="layer1"
     inkscape:document-units="mm"
     inkscape:cy="237.05353"
     inkscape:cx="487.51648"
     inkscape:zoom="5.6"
     inkscape:pageshadow="2"
     inkscape:pageopacity="0.0"
     borderopacity="1.0"
     bordercolor="#666666"
     pagecolor="#ffffff"
     id="base">
    <inkscape:grid
       id="grid6562"
       type="xygrid" />
  </sodipodi:namedview>
  <metadata
     id="metadata5996">
    <rdf:RDF>
      <cc:Work
         rdf:about="">
        <dc:format>image/svg+xml</dc:format>
        <dc:type
           rdf:resource="http://purl.org/dc/dcmitype/StillImage" />
        <dc:title></dc:title>
      </cc:Work>
    </rdf:RDF>
  </metadata>
  <g
     id="layer1"
     inkscape:groupmode="layer"
     inkscape:label="Layer 1">
    <path
       inkscape:original-d="m 129.32504,76.104998 c -0.89063,-1.191313 -1.71484,-2.38973 -2.57266,-3.584991 -0.85782,-1.195263 -1.49614,-2.583341 -2.2446,-3.875407 -0.74847,-1.292069 -1.86604,-3.429471 -2.79945,-5.144601 -0.93342,-1.715132 -3.78637,-4.447614 -5.67995,-6.671815"
       inkscape:path-effect="#path-effect8838"
       id="path8836"
       d="m 129.32504,76.104998 c -0.91968,-1.148742 -1.77882,-2.345948 -2.57266,-3.584991 -0.80556,-1.257325 -1.54348,-2.556995 -2.2446,-3.875407 -0.91688,-1.724125 -1.77272,-3.483546 -2.79945,-5.144601 -1.54156,-2.493958 -3.46394,-4.752039 -5.67995,-6.671815"
       style="fill:none;stroke:#0000ff;stroke-width:0.264583px;stroke-linecap:butt;stroke-linejoin:miter;stroke-opacity:1" />
    <path
       inkscape:original-d="m 140.95127,75.871135 c -1.78862,-1.965552 -3.5775,-3.931372 -5.36664,-5.897456 -1.78914,-1.966085 -2.76518,-3.576167 -4.14816,-5.364647 -1.38299,-1.78848 -2.61007,-1.690193 -3.9155,-2.535685 -1.30543,-0.845492 0.53489,-2.576412 0.80194,-3.865017 0.26705,-1.288603 1.82652,-3.703891 2.73938,-5.556234"
       inkscape:path-effect="#path-effect8842"
       id="path8840"
       d="m 140.95127,75.871135 c -2.14536,-1.596864 -3.9786,-3.611429 -5.36664,-5.897456 -0.59399,-0.978275 -1.10742,-2.005602 -1.74353,-2.957031 -0.63611,-0.951429 -1.41189,-1.838131 -2.40463,-2.407616 -0.69041,-0.39605 -1.46243,-0.625998 -2.18039,-0.969567 -0.35899,-0.171784 -0.70623,-0.373338 -1.01004,-0.630395 -0.30381,-0.257058 -0.56381,-0.571892 -0.72507,-0.935723 -0.27684,-0.624593 -0.24373,-1.350935 -0.0529,-2.006953 0.19078,-0.656017 0.5282,-1.258033 0.85488,-1.858064 0.98766,-1.814073 1.90178,-3.668177 2.73938,-5.556234"
       style="fill:none;stroke:#0000ff;stroke-width:0.264583px;stroke-linecap:butt;stroke-linejoin:miter;stroke-opacity:1" />
    <path
       inkscape:original-d="m 143.69078,75.937953 c 0.13795,-2.344187 0.27564,-4.688639 0.41306,-7.033355 0.13742,-2.344716 -1.36646,-3.351189 -2.05009,-5.027181 -0.68363,-1.675993 -1.35413,-1.173472 -2.03159,-1.760604 -0.67747,-0.587134 -0.24896,-3.859575 -0.37383,-5.78976 -0.12488,-1.930186 -0.66791,0.15617 -1.00227,0.233859 -0.33435,0.07769 -1.30957,-0.438255 -1.96476,-0.65778 -0.65519,-0.219525 -1.22895,-2.590268 -1.84382,-3.885801"
       inkscape:path-effect="#path-effect8846"
       id="path8844"
       d="m 143.69078,75.937953 c 0.45251,-2.311729 0.59187,-4.684549 0.41306,-7.033355 -0.0708,-0.929689 -0.193,-1.863661 -0.50126,-2.743606 -0.30827,-0.879945 -0.81458,-1.708933 -1.54883,-2.283575 -0.35809,-0.280247 -0.76258,-0.495008 -1.13425,-0.756978 -0.37166,-0.261971 -0.71997,-0.584935 -0.89734,-1.003626 -0.10789,-0.254686 -0.1476,-0.535253 -0.13699,-0.811647 0.0106,-0.276394 0.0704,-0.549216 0.15483,-0.812603 0.16892,-0.526774 0.43537,-1.016966 0.62653,-1.536085 0.19115,-0.519119 0.30553,-1.091936 0.15628,-1.624618 -0.0746,-0.266341 -0.21632,-0.516628 -0.42171,-0.701891 -0.20538,-0.185263 -0.47617,-0.302055 -0.75277,-0.302916 -0.17211,-5.36e-4 -0.34133,0.04244 -0.50587,0.09293 -0.16454,0.05049 -0.32728,0.108954 -0.4964,0.140924 -0.35045,0.06625 -0.71701,0.01496 -1.05093,-0.110348 -0.33392,-0.125307 -0.63729,-0.322199 -0.91383,-0.547432 -1.14906,-0.935867 -1.84562,-2.403846 -1.84382,-3.885801"
       style="fill:none;stroke:#0000ff;stroke-width:0.264583px;stroke-linecap:butt;stroke-linejoin:miter;stroke-opacity:1" />
    <path
       inkscape:original-d="m 124.5476,74.46797 c 0.69071,-0.6345 1.47012,-1.298379 2.20478,-1.947963 0.73466,-0.649586 2.094,-0.571978 3.14061,-0.858366 1.0466,-0.286385 2.94023,-1.113359 4.40994,-1.670434 1.46972,-0.557077 0.85473,-0.01143 1.2817,-0.01754 0.42697,-0.0061 3.31075,-1.213035 4.96573,-1.819949 1.65498,-0.606915 2.36925,0.500843 3.55348,0.750869 1.18423,0.250026 0.10352,0.969668 0.15489,1.454105 0.0514,0.484436 1.33661,2.806594 2.00452,4.209494"
       inkscape:path-effect="#path-effect8834"
       id="path8832"
       d="m 124.5476,74.46797 c 0.50735,-0.85814 1.29067,-1.55021 2.20478,-1.947963 0.99645,-0.433578 2.10945,-0.515439 3.14061,-0.858366 0.74963,-0.249299 1.44586,-0.633042 2.15949,-0.971892 0.71364,-0.338849 1.4628,-0.637742 2.25045,-0.698542 0.42613,-0.03289 0.85489,0.0047 1.2817,-0.01754 0.88567,-0.04621 1.73847,-0.348675 2.54761,-0.711778 0.80913,-0.363102 1.59025,-0.790084 2.41812,-1.108171 0.6277,-0.241177 1.30042,-0.420254 1.96793,-0.338931 0.33375,0.04066 0.6618,0.147807 0.94316,0.331867 0.28136,0.184061 0.51434,0.447054 0.64239,0.757933 0.18687,0.453666 0.14115,0.963653 0.15489,1.454105 0.0448,1.599342 0.79114,3.16661 2.00452,4.209494"
       style="fill:none;stroke:#ff0000;stroke-width:0.264583px;stroke-linecap:butt;stroke-linejoin:miter;stroke-opacity:1" />
    <path
       inkscape:original-d="m 120.73901,65.247173 c 0.32337,-0.582126 0.64648,-1.164519 0.96932,-1.747174 0.32284,-0.582657 1.87208,-2.57035 2.80772,-3.855923 0.93564,-1.285571 2.53817,-0.956898 3.80686,-1.435746 1.26869,-0.478846 2.99888,-1.058069 4.49792,-1.5875 1.49904,-0.529431 2.57391,-0.4782 3.86047,-0.717698 1.28656,-0.239498 1.59965,-0.51893 2.39908,-0.778793 0.79943,-0.259861 7.28336,1.626155 10.92464,2.438834"
       inkscape:path-effect="#path-effect8826"
       id="path8824"
       d="m 120.73901,65.247173 c 0.33437,-0.576047 0.65756,-1.158584 0.96932,-1.747174 0.37596,-0.709785 0.73626,-1.430019 1.17803,-2.100821 0.44177,-0.670802 0.97087,-1.295649 1.62969,-1.755102 1.1177,-0.779472 2.50787,-1.024112 3.80686,-1.435746 1.5166,-0.480591 2.9527,-1.208868 4.49792,-1.5875 1.27185,-0.311647 2.59516,-0.380471 3.86047,-0.717698 0.81257,-0.216565 1.59231,-0.541538 2.39908,-0.778793 1.86841,-0.549461 3.87662,-0.616134 5.77736,-0.191809 1.90075,0.424325 3.68994,1.338734 5.14728,2.630643"
       style="fill:none;stroke:#ff0000;stroke-width:0.264583px;stroke-linecap:butt;stroke-linejoin:miter;stroke-opacity:1" />
    <path
       inkscape:original-d="m 124.01306,70.158249 c 0.16517,-0.504285 0.33008,-1.008835 0.49472,-1.513649 0.16464,-0.504815 0.5168,-0.371528 0.77481,-0.557689 0.25801,-0.186161 4.10285,-2.318321 6.15388,-3.477879 2.05103,-1.159558 1.73306,-1.645647 2.5992,-2.468867 0.86613,-0.823222 3.09613,-0.48973 4.6438,-0.734991 1.54768,-0.245264 0.89539,0.474689 1.34269,0.711639 0.44729,0.236948 6.45505,1.953535 9.68218,2.929909"
       inkscape:path-effect="#path-effect8830"
       id="path8828"
       d="m 124.01306,70.158249 c -0.0722,-0.54421 0.11508,-1.11711 0.49472,-1.513649 0.22086,-0.230693 0.49733,-0.399567 0.77481,-0.557689 2.0529,-1.169825 4.3777,-1.919647 6.15388,-3.477879 0.89923,-0.788894 1.63175,-1.765298 2.5992,-2.468867 0.66127,-0.480904 1.42664,-0.824638 2.23229,-0.964217 0.80565,-0.139579 1.65106,-0.07122 2.41151,0.229226 0.47161,0.186324 0.90406,0.45721 1.34269,0.711639 2.94303,1.707123 6.28642,2.718863 9.68218,2.929909"
       style="fill:none;stroke:#ff0000;stroke-width:0.264583px;stroke-linecap:butt;stroke-linejoin:miter;stroke-opacity:1" />
    <g
       style="fill:#ff0000"
       transform="matrix(0.352778,0,0,0.352778,141.25509,52.368149)"
       ns1:version="1.8.2"
       ns1:texconverter="pdflatex"
       ns1:pdfconverter="inkscape"
       ns1:text="$\\mathbf{v}$"
       ns1:preamble="C:\Users\chenyuhsin\Documents\Ideal-Fluid Flow\macros.tex"
       ns1:scale="1.0000000850393187"
       ns1:alignment="middle center"
       ns1:stroke-to-path="0"
       ns1:jacobian_sqrt="0.352778"
       id="g6579">
      <defs
         id="id-cc6904b7-4438-40b3-b0da-5412dd96a0fb">
        <g
           id="id-41910fd5-e7f5-4024-93b7-638db977c66a">
          <symbol
             id="id-8123df7e-e9f3-4860-960c-b608409167a7"
             overflow="visible">
            <path
               id="id-716b1c2a-ba88-4e0a-be5e-dc617911f5ae"
               d=""
               style="stroke:none;stroke-width:0" />
          </symbol>
          <symbol
             id="id-3a519d4e-3092-4395-99d2-708bc7d5fe51"
             overflow="visible">
            <path
               id="id-45d56ce9-e856-488f-b4dc-33c4636c5869"
               d="m 5.046875,-3.75 c 0.0625,-0.140625 0.09375,-0.203125 0.734375,-0.203125 v -0.46875 C 5.53125,-4.40625 5.25,-4.390625 5,-4.390625 c -0.25,0 -0.703125,-0.03125 -0.90625,-0.03125 v 0.46875 c 0.1875,0 0.46875,0.03125 0.46875,0.109375 0,0 0,0.03125 -0.046875,0.109375 l -1.15625,2.5 -1.265625,-2.71875 H 2.625 v -0.46875 c -0.328125,0.015625 -1.21875,0.03125 -1.234375,0.03125 -0.28125,0 -0.71875,-0.03125 -1.125,-0.03125 v 0.46875 h 0.625 l 1.75,3.75 c 0.125,0.25 0.25,0.25 0.375,0.25 0.171875,0 0.28125,-0.03125 0.375,-0.25 z m 0,0"
               style="stroke:none;stroke-width:0" />
          </symbol>
        </g>
      </defs>
      <g
         style="fill:#ff0000"
         transform="translate(-87.2096,-100.582)"
         id="id-ccae42da-b526-422b-83cc-22447a0e37d3">
        <g
           id="id-cfa7da92-1d3a-4f76-bd67-eee77eb59a4e"
           style="fill:#ff0000;fill-opacity:1">
          <g
             style="fill:#ff0000"
             transform="translate(86.944,105.004)"
             id="g6575">
            <path
               id="id-acd7d976-e7ab-48ee-b4bc-a58ed18b6fe3"
               d="m 5.046875,-3.75 c 0.0625,-0.140625 0.09375,-0.203125 0.734375,-0.203125 v -0.46875 C 5.53125,-4.40625 5.25,-4.390625 5,-4.390625 c -0.25,0 -0.703125,-0.03125 -0.90625,-0.03125 v 0.46875 c 0.1875,0 0.46875,0.03125 0.46875,0.109375 0,0 0,0.03125 -0.046875,0.109375 l -1.15625,2.5 -1.265625,-2.71875 H 2.625 v -0.46875 c -0.328125,0.015625 -1.21875,0.03125 -1.234375,0.03125 -0.28125,0 -0.71875,-0.03125 -1.125,-0.03125 v 0.46875 h 0.625 l 1.75,3.75 c 0.125,0.25 0.25,0.25 0.375,0.25 0.171875,0 0.28125,-0.03125 0.375,-0.25 z m 0,0"
               style="fill:#ff0000;stroke:none;stroke-width:0" />
          </g>
        </g>
      </g>
    </g>
    <g
       style="fill:#0000ff"
       transform="matrix(0.352778,0,0,0.352778,133.97798,48.138841)"
       ns1:version="1.8.2"
       ns1:texconverter="pdflatex"
       ns1:pdfconverter="inkscape"
       ns1:text="$\\boldsymbol{\\xi}=\\nabla\\times\\mathbf{v}$"
       ns1:preamble="C:\Users\chenyuhsin\Documents\Ideal-Fluid Flow\macros.tex"
       ns1:scale="1.0000000850393187"
       ns1:alignment="middle center"
       ns1:stroke-to-path="0"
       ns1:jacobian_sqrt="0.352778"
       id="g6651">
      <defs
         id="id-0a7426cf-e7ad-4eaf-b2b0-eed1b7d65340">
        <g
           id="id-947b99d3-5453-434e-8382-ef06d66472fb">
          <symbol
             id="id-784c8f14-4c6b-43eb-9c79-fe61e170f8cf"
             overflow="visible">
            <path
               id="id-f1911b11-13a5-48d2-817f-f438d0daa7e6"
               d=""
               style="stroke:none;stroke-width:0" />
          </symbol>
          <symbol
             id="id-ec308226-aa52-44e5-bb19-2f21134ed1f1"
             overflow="visible">
            <path
               id="id-2a267683-58ea-40ae-b33c-c19a88e02f95"
               d="m 2.328125,-3.328125 c -0.0625,-0.15625 -0.09375,-0.34375 -0.09375,-0.515625 0,-0.515625 0.296875,-1.28125 0.84375,-1.65625 0.21875,0.296875 0.5,0.296875 0.734375,0.296875 0.28125,0 1.078125,0 1.078125,-0.53125 0,-0.421875 -0.53125,-0.421875 -0.953125,-0.421875 -0.09375,0 -0.34375,0 -0.625,0.03125 0,-0.3125 0.0625,-0.53125 0.0625,-0.546875 0.03125,-0.09375 0.03125,-0.09375 0.03125,-0.125 0,-0.203125 -0.203125,-0.21875 -0.21875,-0.21875 -0.328125,0 -0.328125,0.59375 -0.328125,0.78125 0,0.0625 0,0.15625 0.015625,0.21875 C 1.625,-5.640625 1,-4.75 1,-3.984375 c 0,0.46875 0.265625,0.84375 0.53125,1.03125 C 0.484375,-2.25 0.234375,-1.3125 0.234375,-0.9375 c 0,0.8125 0.734375,1.21875 1.328125,1.421875 L 2.703125,0.875 c 0.25,0.078125 0.671875,0.234375 0.75,0.265625 0.078125,0.046875 0.125,0.140625 0.125,0.21875 0,0.03125 -0.015625,0.296875 -0.3125,0.296875 -0.0625,0 -0.546875,-0.015625 -1,-0.25 C 2.203125,1.359375 2.1875,1.359375 2.140625,1.359375 2,1.359375 1.9375,1.46875 1.9375,1.53125 c 0,0.25 0.84375,0.484375 1.34375,0.484375 0.78125,0 1.1875,-0.71875 1.1875,-1.1875 0,-0.421875 -0.296875,-0.671875 -0.484375,-0.75 C 3.84375,0.03125 2.90625,-0.296875 2.65625,-0.375 L 2,-0.59375 c -0.34375,-0.125 -0.921875,-0.328125 -0.921875,-0.796875 0,-0.59375 0.75,-1.296875 0.875,-1.296875 0.015625,0 0.015625,0 0.078125,0.015625 C 2.515625,-2.5 2.828125,-2.5 3.09375,-2.5 c 0.3125,0 1.140625,0 1.140625,-0.546875 0,-0.40625 -0.625,-0.40625 -0.953125,-0.40625 -0.1875,0 -0.5,0 -0.953125,0.125 z M 3.40625,-5.71875 c 0.203125,-0.078125 0.375,-0.078125 0.515625,-0.078125 0.3125,0 0.34375,0 0.5,0.0625 0,0.015625 0,0.015625 -0.03125,0.0625 C 4.296875,-5.5625 3.921875,-5.5625 3.8125,-5.5625 c -0.15625,0 -0.3125,0 -0.40625,-0.15625 z M 2.578125,-3 c 0.265625,-0.09375 0.5,-0.09375 0.65625,-0.09375 0.328125,0 0.359375,0 0.515625,0.0625 -0.015625,0.015625 -0.015625,0.046875 -0.03125,0.0625 C 3.625,-2.859375 3.25,-2.859375 3.125,-2.859375 c -0.15625,0 -0.375,0 -0.546875,-0.140625 z m 0,0"
               style="stroke:none;stroke-width:0" />
          </symbol>
          <symbol
             id="id-690f93e5-8df8-42c0-a46d-ec3eb742821c"
             overflow="visible">
            <path
               id="id-6711d89c-fb50-4ed6-a19e-6e10fed2aa3a"
               d=""
               style="stroke:none;stroke-width:0" />
          </symbol>
          <symbol
             id="id-c47137e1-5239-46dc-b846-037726d93809"
             overflow="visible">
            <path
               id="id-5d1c14b0-aa4d-4769-8ec4-c05f6ed05a4d"
               d="m 6.84375,-3.265625 c 0.15625,0 0.34375,0 0.34375,-0.1875 C 7.1875,-3.65625 7,-3.65625 6.859375,-3.65625 h -5.96875 c -0.140625,0 -0.328125,0 -0.328125,0.203125 0,0.1875 0.1875,0.1875 0.328125,0.1875 z m 0.015625,1.9375 c 0.140625,0 0.328125,0 0.328125,-0.203125 0,-0.1875 -0.1875,-0.1875 -0.34375,-0.1875 H 0.890625 c -0.140625,0 -0.328125,0 -0.328125,0.1875 0,0.203125 0.1875,0.203125 0.328125,0.203125 z m 0,0"
               style="stroke:none;stroke-width:0" />
          </symbol>
          <symbol
             id="id-136a309e-0b8b-46ba-bbb1-73c0bb4b4b8e"
             overflow="visible">
            <path
               id="id-3c7e2bdc-d0dc-4078-93de-5a1ecda27698"
               d=""
               style="stroke:none;stroke-width:0" />
          </symbol>
          <symbol
             id="id-cb107fb0-57d9-4c15-a7ac-bbddd1df0e4b"
             overflow="visible">
            <path
               id="id-4bf26f42-afda-45b6-9891-429a29ff0e33"
               d="M 7.78125,-6.59375 C 7.796875,-6.625 7.828125,-6.6875 7.828125,-6.734375 7.828125,-6.796875 7.8125,-6.8125 7.59375,-6.8125 H 0.703125 c -0.21875,0 -0.234375,0.015625 -0.234375,0.078125 0,0.046875 0.03125,0.109375 0.046875,0.140625 L 3.875,0.140625 c 0.078125,0.125 0.109375,0.1875 0.265625,0.1875 0.171875,0 0.203125,-0.0625 0.28125,-0.1875 z m -6.078125,0.5 h 5.46875 l -2.71875,5.484375 z m 0,0"
               style="stroke:none;stroke-width:0" />
          </symbol>
          <symbol
             id="id-5a61f4ef-e79c-4199-8813-5fda6befb9e9"
             overflow="visible">
            <path
               id="id-0141cf0a-d3da-4bc4-9218-34225acff11b"
               d="M 3.875,-2.765625 1.890625,-4.75 C 1.765625,-4.875 1.75,-4.890625 1.671875,-4.890625 1.5625,-4.890625 1.46875,-4.8125 1.46875,-4.6875 c 0,0.0625 0.015625,0.078125 0.125,0.1875 l 2,2 -2,2.015625 c -0.109375,0.109375 -0.125,0.125 -0.125,0.1875 0,0.125 0.09375,0.203125 0.203125,0.203125 0.078125,0 0.09375,-0.015625 0.21875,-0.140625 L 3.875,-2.21875 l 2.0625,2.0625 c 0.015625,0.015625 0.078125,0.0625 0.140625,0.0625 0.125,0 0.203125,-0.078125 0.203125,-0.203125 0,-0.015625 0,-0.046875 -0.03125,-0.109375 C 6.234375,-0.421875 4.65625,-1.984375 4.15625,-2.5 l 1.828125,-1.8125 c 0.046875,-0.0625 0.203125,-0.1875 0.25,-0.25 0,-0.015625 0.046875,-0.0625 0.046875,-0.125 0,-0.125 -0.078125,-0.203125 -0.203125,-0.203125 C 6,-4.890625 5.96875,-4.859375 5.859375,-4.75 Z m 0,0"
               style="stroke:none;stroke-width:0" />
          </symbol>
          <symbol
             id="id-ffe15434-05b8-48fc-babf-f3aaf6550521"
             overflow="visible">
            <path
               id="id-41d7d595-5748-4119-a4b3-304972ce30a5"
               d=""
               style="stroke:none;stroke-width:0" />
          </symbol>
          <symbol
             id="id-d5ff34f9-5d5c-477d-9eaa-f0c1256e6048"
             overflow="visible">
            <path
               id="id-19a0905d-8c18-4077-8128-2bc3f4a47bea"
               d="m 5.046875,-3.75 c 0.0625,-0.140625 0.09375,-0.203125 0.734375,-0.203125 v -0.46875 C 5.53125,-4.40625 5.25,-4.390625 5,-4.390625 c -0.25,0 -0.703125,-0.03125 -0.90625,-0.03125 v 0.46875 c 0.1875,0 0.46875,0.03125 0.46875,0.109375 0,0 0,0.03125 -0.046875,0.109375 l -1.15625,2.5 -1.265625,-2.71875 H 2.625 v -0.46875 c -0.328125,0.015625 -1.21875,0.03125 -1.234375,0.03125 -0.28125,0 -0.71875,-0.03125 -1.125,-0.03125 v 0.46875 h 0.625 l 1.75,3.75 c 0.125,0.25 0.25,0.25 0.375,0.25 0.171875,0 0.28125,-0.03125 0.375,-0.25 z m 0,0"
               style="stroke:none;stroke-width:0" />
          </symbol>
        </g>
      </defs>
      <g
         style="fill:#0000ff"
         transform="translate(-87.1784,-97.9884)"
         id="id-43ebbcc8-b718-486b-9f66-e1857912f214">
        <g
           id="id-595b81f8-ae5c-4725-9748-418231408d12"
           style="fill:#0000ff;fill-opacity:1">
          <g
             style="fill:#0000ff"
             transform="translate(86.944,105.004)"
             id="g6631">
            <path
               id="id-0fc391b0-4dff-4ace-a1cc-6f3f7cfff1ac"
               d="m 2.328125,-3.328125 c -0.0625,-0.15625 -0.09375,-0.34375 -0.09375,-0.515625 0,-0.515625 0.296875,-1.28125 0.84375,-1.65625 0.21875,0.296875 0.5,0.296875 0.734375,0.296875 0.28125,0 1.078125,0 1.078125,-0.53125 0,-0.421875 -0.53125,-0.421875 -0.953125,-0.421875 -0.09375,0 -0.34375,0 -0.625,0.03125 0,-0.3125 0.0625,-0.53125 0.0625,-0.546875 0.03125,-0.09375 0.03125,-0.09375 0.03125,-0.125 0,-0.203125 -0.203125,-0.21875 -0.21875,-0.21875 -0.328125,0 -0.328125,0.59375 -0.328125,0.78125 0,0.0625 0,0.15625 0.015625,0.21875 C 1.625,-5.640625 1,-4.75 1,-3.984375 c 0,0.46875 0.265625,0.84375 0.53125,1.03125 C 0.484375,-2.25 0.234375,-1.3125 0.234375,-0.9375 c 0,0.8125 0.734375,1.21875 1.328125,1.421875 L 2.703125,0.875 c 0.25,0.078125 0.671875,0.234375 0.75,0.265625 0.078125,0.046875 0.125,0.140625 0.125,0.21875 0,0.03125 -0.015625,0.296875 -0.3125,0.296875 -0.0625,0 -0.546875,-0.015625 -1,-0.25 C 2.203125,1.359375 2.1875,1.359375 2.140625,1.359375 2,1.359375 1.9375,1.46875 1.9375,1.53125 c 0,0.25 0.84375,0.484375 1.34375,0.484375 0.78125,0 1.1875,-0.71875 1.1875,-1.1875 0,-0.421875 -0.296875,-0.671875 -0.484375,-0.75 C 3.84375,0.03125 2.90625,-0.296875 2.65625,-0.375 L 2,-0.59375 c -0.34375,-0.125 -0.921875,-0.328125 -0.921875,-0.796875 0,-0.59375 0.75,-1.296875 0.875,-1.296875 0.015625,0 0.015625,0 0.078125,0.015625 C 2.515625,-2.5 2.828125,-2.5 3.09375,-2.5 c 0.3125,0 1.140625,0 1.140625,-0.546875 0,-0.40625 -0.625,-0.40625 -0.953125,-0.40625 -0.1875,0 -0.5,0 -0.953125,0.125 z M 3.40625,-5.71875 c 0.203125,-0.078125 0.375,-0.078125 0.515625,-0.078125 0.3125,0 0.34375,0 0.5,0.0625 0,0.015625 0,0.015625 -0.03125,0.0625 C 4.296875,-5.5625 3.921875,-5.5625 3.8125,-5.5625 c -0.15625,0 -0.3125,0 -0.40625,-0.15625 z M 2.578125,-3 c 0.265625,-0.09375 0.5,-0.09375 0.65625,-0.09375 0.328125,0 0.359375,0 0.515625,0.0625 -0.015625,0.015625 -0.015625,0.046875 -0.03125,0.0625 C 3.625,-2.859375 3.25,-2.859375 3.125,-2.859375 c -0.15625,0 -0.375,0 -0.546875,-0.140625 z m 0,0"
               style="stroke:none;stroke-width:0;fill:#0000ff" />
          </g>
        </g>
        <g
           id="id-418edd78-e2b8-48c6-9220-8b79c49ed708"
           style="fill:#0000ff;fill-opacity:1">
          <g
             style="fill:#0000ff"
             transform="translate(95.077,105.004)"
             id="g6635">
            <path
               id="id-dd32baf2-df0c-4ae1-bccf-19767897ab5e"
               d="m 6.84375,-3.265625 c 0.15625,0 0.34375,0 0.34375,-0.1875 C 7.1875,-3.65625 7,-3.65625 6.859375,-3.65625 h -5.96875 c -0.140625,0 -0.328125,0 -0.328125,0.203125 0,0.1875 0.1875,0.1875 0.328125,0.1875 z m 0.015625,1.9375 c 0.140625,0 0.328125,0 0.328125,-0.203125 0,-0.1875 -0.1875,-0.1875 -0.34375,-0.1875 H 0.890625 c -0.140625,0 -0.328125,0 -0.328125,0.1875 0,0.203125 0.1875,0.203125 0.328125,0.203125 z m 0,0"
               style="stroke:none;stroke-width:0;fill:#0000ff" />
          </g>
        </g>
        <g
           id="id-e71d8e37-b1db-4a18-aa12-f378d796c924"
           style="fill:#0000ff;fill-opacity:1">
          <g
             style="fill:#0000ff"
             transform="translate(105.593,105.004)"
             id="g6639">
            <path
               id="id-58ab82cd-95c9-49e1-920c-ab4c66d8f7dd"
               d="M 7.78125,-6.59375 C 7.796875,-6.625 7.828125,-6.6875 7.828125,-6.734375 7.828125,-6.796875 7.8125,-6.8125 7.59375,-6.8125 H 0.703125 c -0.21875,0 -0.234375,0.015625 -0.234375,0.078125 0,0.046875 0.03125,0.109375 0.046875,0.140625 L 3.875,0.140625 c 0.078125,0.125 0.109375,0.1875 0.265625,0.1875 0.171875,0 0.203125,-0.0625 0.28125,-0.1875 z m -6.078125,0.5 h 5.46875 l -2.71875,5.484375 z m 0,0"
               style="stroke:none;stroke-width:0;fill:#0000ff" />
          </g>
        </g>
        <g
           id="id-59d67e3a-9c2b-4c04-9458-9d2978b8d739"
           style="fill:#0000ff;fill-opacity:1">
          <g
             style="fill:#0000ff"
             transform="translate(116.107,105.004)"
             id="g6643">
            <path
               id="id-0cd3fb30-c978-4537-86b9-b54b374e511a"
               d="M 3.875,-2.765625 1.890625,-4.75 C 1.765625,-4.875 1.75,-4.890625 1.671875,-4.890625 1.5625,-4.890625 1.46875,-4.8125 1.46875,-4.6875 c 0,0.0625 0.015625,0.078125 0.125,0.1875 l 2,2 -2,2.015625 c -0.109375,0.109375 -0.125,0.125 -0.125,0.1875 0,0.125 0.09375,0.203125 0.203125,0.203125 0.078125,0 0.09375,-0.015625 0.21875,-0.140625 L 3.875,-2.21875 l 2.0625,2.0625 c 0.015625,0.015625 0.078125,0.0625 0.140625,0.0625 0.125,0 0.203125,-0.078125 0.203125,-0.203125 0,-0.015625 0,-0.046875 -0.03125,-0.109375 C 6.234375,-0.421875 4.65625,-1.984375 4.15625,-2.5 l 1.828125,-1.8125 c 0.046875,-0.0625 0.203125,-0.1875 0.25,-0.25 0,-0.015625 0.046875,-0.0625 0.046875,-0.125 0,-0.125 -0.078125,-0.203125 -0.203125,-0.203125 C 6,-4.890625 5.96875,-4.859375 5.859375,-4.75 Z m 0,0"
               style="stroke:none;stroke-width:0;fill:#0000ff" />
          </g>
        </g>
        <g
           id="id-a731aaf2-b661-449d-a509-68d5434cadb6"
           style="fill:#0000ff;fill-opacity:1">
          <g
             style="fill:#0000ff"
             transform="translate(126.071,105.004)"
             id="g6647">
            <path
               id="id-868bb386-bb2e-489a-a18b-dda9e02ab10a"
               d="m 5.046875,-3.75 c 0.0625,-0.140625 0.09375,-0.203125 0.734375,-0.203125 v -0.46875 C 5.53125,-4.40625 5.25,-4.390625 5,-4.390625 c -0.25,0 -0.703125,-0.03125 -0.90625,-0.03125 v 0.46875 c 0.1875,0 0.46875,0.03125 0.46875,0.109375 0,0 0,0.03125 -0.046875,0.109375 l -1.15625,2.5 -1.265625,-2.71875 H 2.625 v -0.46875 c -0.328125,0.015625 -1.21875,0.03125 -1.234375,0.03125 -0.28125,0 -0.71875,-0.03125 -1.125,-0.03125 v 0.46875 h 0.625 l 1.75,3.75 c 0.125,0.25 0.25,0.25 0.375,0.25 0.171875,0 0.28125,-0.03125 0.375,-0.25 z m 0,0"
               style="stroke:none;stroke-width:0;fill:#0000ff" />
          </g>
        </g>
      </g>
    </g>
    <circle
       r="0.44496614"
       cy="55.879513"
       cx="136.65767"
       id="path6696"
       style="fill:#000000;fill-opacity:1;stroke:#000000;stroke-width:0.178266" />
    <path
       id="path6698"
       d="m 136.6813,55.903133 4.49792,-1.5875"
       style="fill:none;stroke:#ff0000;stroke-width:0.264583px;stroke-linecap:butt;stroke-linejoin:miter;stroke-opacity:1;marker-end:url(#marker6720)" />
    <path
       id="path6702"
       d="m 136.6813,55.903133 -3.13692,-3.135445"
       style="fill:none;stroke:#0000ff;stroke-width:0.265;stroke-linecap:butt;stroke-linejoin:miter;stroke-miterlimit:4;stroke-dasharray:none;stroke-opacity:1;marker-end:url(#Arrow1Send)" />
    <circle
       transform="rotate(-25.510063)"
       style="fill:#000000;fill-opacity:1;stroke:#000000;stroke-width:0.178266"
       id="path6696-4"
       cx="90.773926"
       cy="114.89235"
       r="0.44496614" />
    <path
       style="fill:none;stroke:#ff0000;stroke-width:0.264583px;stroke-linecap:butt;stroke-linejoin:miter;stroke-opacity:1;marker-end:url(#marker6720-57)"
       d="M 131.43647,64.609032 134.8122,61.23918"
       id="path6698-0" />
    <path
       style="fill:none;stroke:#0000ff;stroke-width:0.264999;stroke-linecap:butt;stroke-linejoin:miter;stroke-miterlimit:4;stroke-dasharray:none;stroke-opacity:1;marker-end:url(#Arrow1Send-6)"
       d="M 131.43647,64.609032 127.31046,62.98198"
       id="path6702-2" />
    <circle
       style="fill:#000000;fill-opacity:1;stroke:#000000;stroke-width:0.178266"
       id="path6696-44"
       cx="121.68471"
       cy="63.476376"
       r="0.44496614" />
    <path
       style="fill:none;stroke:#ff0000;stroke-width:0.264583px;stroke-linecap:butt;stroke-linejoin:miter;stroke-opacity:1;marker-end:url(#marker6720-4)"
       d="m 121.70193,63.681917 1.9963,-4.331999"
       id="path6698-87" />
    <path
       style="fill:none;stroke:#0000ff;stroke-width:0.264999;stroke-linecap:butt;stroke-linejoin:miter;stroke-miterlimit:4;stroke-dasharray:none;stroke-opacity:1;marker-end:url(#Arrow1Send-62)"
       d="m 121.70193,63.681917 -2.61525,-3.582135"
       id="path6702-1" />
    <circle
       style="fill:#000000;fill-opacity:1;stroke:#000000;stroke-width:0.178266"
       id="path6696-2"
       cx="128.29929"
       cy="58.184711"
       r="0.44496614" />
    <path
       style="fill:none;stroke:#ff0000;stroke-width:0.264583px;stroke-linecap:butt;stroke-linejoin:miter;stroke-opacity:1;marker-end:url(#marker6720-0)"
       d="m 128.32291,58.208332 4.49792,-1.5875"
       id="path6698-3" />
    <path
       style="fill:none;stroke:#0000ff;stroke-width:0.264999;stroke-linecap:butt;stroke-linejoin:miter;stroke-miterlimit:4;stroke-dasharray:none;stroke-opacity:1;marker-end:url(#Arrow1Send-65)"
       d="m 128.32291,58.208332 1.32292,-4.233334"
       id="path6702-5" />
    <circle
       style="fill:#000000;fill-opacity:1;stroke:#000000;stroke-width:0.178266"
       id="path6696-3"
       cx="139.99855"
       cy="62.093189"
       r="0.44496614" />
    <path
       style="fill:none;stroke:#ff0000;stroke-width:0.264583px;stroke-linecap:butt;stroke-linejoin:miter;stroke-opacity:1;marker-end:url(#marker6720-43)"
       d="m 140.02216,62.116813 4.2669,2.131897"
       id="path6698-7" />
    <path
       style="fill:none;stroke:#0000fe;stroke-width:0.264999;stroke-linecap:butt;stroke-linejoin:miter;stroke-miterlimit:4;stroke-dasharray:none;stroke-opacity:1;marker-end:url(#Arrow1Send-2)"
       d="m 140.02216,62.116813 -0.44193,-4.413161"
       id="path6702-24" />
    <circle
       style="fill:#000000;fill-opacity:1;stroke:#000000;stroke-width:0.178266"
       id="path6696-0"
       cx="126.72875"
       cy="72.496384"
       r="0.44496614" />
    <path
       style="fill:none;stroke:#ff0000;stroke-width:0.264583px;stroke-linecap:butt;stroke-linejoin:miter;stroke-opacity:1;marker-end:url(#marker6720-1)"
       d="m 126.75238,72.520007 4.49792,-1.5875"
       id="path6698-1" />
    <path
       style="fill:none;stroke:#0000ff;stroke-width:0.264999;stroke-linecap:butt;stroke-linejoin:miter;stroke-miterlimit:4;stroke-dasharray:none;stroke-opacity:1;marker-end:url(#Arrow1Send-21)"
       d="M 126.4673,72.623485 124.50778,68.6446"
       id="path6702-19" />
    <circle
       style="fill:#000000;fill-opacity:1;stroke:#000000;stroke-width:0.178266"
       id="path6696-1"
       cx="124.48415"
       cy="68.620972"
       r="0.44496614" />
    <path
       style="fill:none;stroke:#ff0000;stroke-width:0.264583px;stroke-linecap:butt;stroke-linejoin:miter;stroke-opacity:1;marker-end:url(#marker6720-52)"
       d="m 124.50778,68.6446 3.61393,-3.113031"
       id="path6698-19" />
    <path
       style="fill:none;stroke:#0000ff;stroke-width:0.264999;stroke-linecap:butt;stroke-linejoin:miter;stroke-miterlimit:4;stroke-dasharray:none;stroke-opacity:1;marker-end:url(#Arrow1Send-5)"
       d="m 124.50778,68.6446 -1.87627,-4.01881"
       id="path6702-52" />
    <circle
       r="0.44496614"
       cy="69.950058"
       cx="135.561"
       id="path6696-0-5"
       style="fill:#000000;fill-opacity:1;stroke:#000000;stroke-width:0.178266" />
    <path
       id="path6698-1-3"
       d="m 135.58463,69.973679 4.70675,-0.773316"
       style="fill:none;stroke:#ff0000;stroke-width:0.264583px;stroke-linecap:butt;stroke-linejoin:miter;stroke-opacity:1;marker-end:url(#marker6720-1-8)" />
    <path
       id="path6702-19-9"
       d="M 135.58463,69.973679 134.1761,65.768054"
       style="fill:none;stroke:#0000ff;stroke-width:0.264999;stroke-linecap:butt;stroke-linejoin:miter;stroke-miterlimit:4;stroke-dasharray:none;stroke-opacity:1;marker-end:url(#Arrow1Send-21-5)" />
    <circle
       r="0.44496614"
       cy="68.880981"
       cx="144.08022"
       id="path6696-0-4"
       style="fill:#000000;fill-opacity:1;stroke:#000000;stroke-width:0.178266" />
    <path
       id="path6698-1-6"
       d="m 144.10384,68.904599 -0.34216,-4.75755"
       style="fill:none;stroke:#0000ff;stroke-width:0.264583px;stroke-linecap:butt;stroke-linejoin:miter;stroke-opacity:1;marker-end:url(#marker6720-1-5)" />
    <path
       id="path6702-19-2"
       d="m 144.10384,68.904599 0.71806,4.376711"
       style="fill:none;stroke:#ff0000;stroke-width:0.264999;stroke-linecap:butt;stroke-linejoin:miter;stroke-miterlimit:4;stroke-dasharray:none;stroke-opacity:1;marker-end:url(#Arrow1Send-21-6)" />
  </g>
</svg>
